<svg xmlns="http://www.w3.org/2000/svg" viewBox="0 0 414 160" width="414" height="160">
  <defs>
    <radialGradient id="bg" cx="50%" cy="50%" r="70%">
      <stop offset="0%" stop-color="#1c1400"/>
      <stop offset="100%" stop-color="#090909"/>
    </radialGradient>
    <filter id="glow" x="-40%" y="-40%" width="180%" height="180%">
      <feGaussianBlur stdDeviation="5" result="b"/>
      <feColorMatrix in="b" type="matrix"
        values="1 0.7 0 0 0  0.7 0.45 0 0 0  0 0 0 0 0  0 0 0 0.9 0" result="c"/>
      <feMerge><feMergeNode in="c"/><feMergeNode in="SourceGraphic"/></feMerge>
    </filter>
  </defs>

  <rect width="414" height="160" fill="url(#bg)" rx="16"/>

  <g filter="url(#glow)" transform="translate(7, 30)">

    <!-- Cell size: w=18, h=20 -->

    <!-- ROW 1  ░░▄█▀▀▀░░░░░░░░▀▀▀█▄ -->
    <rect x="36"  y="10" width="18" height="10" fill="#CC8800"/>
    <rect x="54"  y="0"  width="18" height="20" fill="#FFD000"/>
    <rect x="72"  y="0"  width="18" height="10" fill="#FFE566"/>
    <rect x="90"  y="0"  width="18" height="10" fill="#FFE566"/>
    <rect x="108" y="0"  width="18" height="10" fill="#FFE566"/>
    <rect x="270" y="0"  width="18" height="10" fill="#FFE566"/>
    <rect x="288" y="0"  width="18" height="10" fill="#FFE566"/>
    <rect x="306" y="0"  width="18" height="10" fill="#FFE566"/>
    <rect x="324" y="0"  width="18" height="20" fill="#FFD000"/>
    <rect x="342" y="10" width="18" height="10" fill="#CC8800"/>

    <!-- ROW 2  ▄███▄▄░░▀▄██▄▀░░▄▄███▄ -->
    <rect x="0"   y="30" width="18" height="10" fill="#CC8800"/>
    <rect x="18"  y="20" width="18" height="20" fill="#FFD000"/>
    <rect x="36"  y="20" width="18" height="20" fill="#FFD000"/>
    <rect x="54"  y="20" width="18" height="20" fill="#FFD000"/>
    <rect x="72"  y="30" width="18" height="10" fill="#CC8800"/>
    <rect x="90"  y="30" width="18" height="10" fill="#CC8800"/>
    <rect x="144" y="20" width="18" height="10" fill="#FFE566"/>
    <rect x="162" y="30" width="18" height="10" fill="#CC8800"/>
    <rect x="180" y="20" width="18" height="20" fill="#FFD000"/>
    <rect x="198" y="20" width="18" height="20" fill="#FFD000"/>
    <rect x="216" y="30" width="18" height="10" fill="#CC8800"/>
    <rect x="234" y="20" width="18" height="10" fill="#FFE566"/>
    <rect x="270" y="30" width="18" height="10" fill="#CC8800"/>
    <rect x="288" y="30" width="18" height="10" fill="#CC8800"/>
    <rect x="306" y="20" width="18" height="20" fill="#FFD000"/>
    <rect x="324" y="20" width="18" height="20" fill="#FFD000"/>
    <rect x="342" y="20" width="18" height="20" fill="#FFD000"/>
    <rect x="360" y="30" width="18" height="10" fill="#CC8800"/>

    <!-- ROW 3  ▀██▄▄▄▄████████▄▄▄▄██▀ -->
    <rect x="0"   y="40" width="18" height="10" fill="#FFE566"/>
    <rect x="18"  y="40" width="18" height="20" fill="#FFD000"/>
    <rect x="36"  y="40" width="18" height="20" fill="#FFD000"/>
    <rect x="54"  y="50" width="18" height="10" fill="#CC8800"/>
    <rect x="72"  y="50" width="18" height="10" fill="#CC8800"/>
    <rect x="90"  y="50" width="18" height="10" fill="#CC8800"/>
    <rect x="108" y="50" width="18" height="10" fill="#CC8800"/>
    <rect x="126" y="40" width="18" height="20" fill="#FFD000"/>
    <rect x="144" y="40" width="18" height="20" fill="#FFD000"/>
    <rect x="162" y="40" width="18" height="20" fill="#FFD000"/>
    <rect x="180" y="40" width="18" height="20" fill="#FFD000"/>
    <rect x="198" y="40" width="18" height="20" fill="#FFD000"/>
    <rect x="216" y="40" width="18" height="20" fill="#FFD000"/>
    <rect x="234" y="40" width="18" height="20" fill="#FFD000"/>
    <rect x="252" y="40" width="18" height="20" fill="#FFD000"/>
    <rect x="270" y="50" width="18" height="10" fill="#CC8800"/>
    <rect x="288" y="50" width="18" height="10" fill="#CC8800"/>
    <rect x="306" y="50" width="18" height="10" fill="#CC8800"/>
    <rect x="324" y="50" width="18" height="10" fill="#CC8800"/>
    <rect x="342" y="40" width="18" height="20" fill="#FFD000"/>
    <rect x="360" y="40" width="18" height="20" fill="#FFD000"/>
    <rect x="378" y="40" width="18" height="10" fill="#FFE566"/>

    <!-- ROW 4  ░░▄▄▄▄██████████▄▄▄▄ -->
    <rect x="36"  y="70" width="18" height="10" fill="#CC8800"/>
    <rect x="54"  y="70" width="18" height="10" fill="#CC8800"/>
    <rect x="72"  y="70" width="18" height="10" fill="#CC8800"/>
    <rect x="90"  y="70" width="18" height="10" fill="#CC8800"/>
    <rect x="108" y="60" width="18" height="20" fill="#FFD000"/>
    <rect x="126" y="60" width="18" height="20" fill="#FFD000"/>
    <rect x="144" y="60" width="18" height="20" fill="#FFD000"/>
    <rect x="162" y="60" width="18" height="20" fill="#FFD000"/>
    <rect x="180" y="60" width="18" height="20" fill="#FFD000"/>
    <rect x="198" y="60" width="18" height="20" fill="#FFD000"/>
    <rect x="216" y="60" width="18" height="20" fill="#FFD000"/>
    <rect x="234" y="60" width="18" height="20" fill="#FFD000"/>
    <rect x="252" y="60" width="18" height="20" fill="#FFD000"/>
    <rect x="270" y="60" width="18" height="20" fill="#FFD000"/>
    <rect x="288" y="70" width="18" height="10" fill="#CC8800"/>
    <rect x="306" y="70" width="18" height="10" fill="#CC8800"/>
    <rect x="324" y="70" width="18" height="10" fill="#CC8800"/>
    <rect x="342" y="70" width="18" height="10" fill="#CC8800"/>

    <!-- ROW 5  ░▐▐▀▐▀░▀██████▀░▀▌▀▌▌ -->
    <rect x="27"  y="80" width="9"  height="20" fill="#E6A000"/>
    <rect x="45"  y="80" width="9"  height="20" fill="#E6A000"/>
    <rect x="54"  y="80" width="18" height="10" fill="#FFE566"/>
    <rect x="81"  y="80" width="9"  height="20" fill="#E6A000"/>
    <rect x="90"  y="80" width="18" height="10" fill="#FFE566"/>
    <rect x="126" y="80" width="18" height="10" fill="#FFE566"/>
    <rect x="144" y="80" width="18" height="20" fill="#FFD000"/>
    <rect x="162" y="80" width="18" height="20" fill="#FFD000"/>
    <rect x="180" y="80" width="18" height="20" fill="#FFD000"/>
    <rect x="198" y="80" width="18" height="20" fill="#FFD000"/>
    <rect x="216" y="80" width="18" height="20" fill="#FFD000"/>
    <rect x="234" y="80" width="18" height="20" fill="#FFD000"/>
    <rect x="252" y="80" width="18" height="10" fill="#FFE566"/>
    <rect x="288" y="80" width="18" height="10" fill="#FFE566"/>
    <rect x="306" y="80" width="9"  height="20" fill="#E6A000"/>
    <rect x="324" y="80" width="18" height="10" fill="#FFE566"/>
    <rect x="342" y="80" width="9"  height="20" fill="#E6A000"/>
    <rect x="360" y="80" width="9"  height="20" fill="#E6A000"/>

  </g>
</svg>
